# xmcd
#
# Track frame offsets: 
#        150
#        13167
#        25455
#        38815
#        54427
#        65528
#        75433
#        85576
#        98133
#        110497
#        121678
#        133925
#
# Disc length: 1958 seconds
#
# Revision: 0
# Processed by: cddbd v1.5.2PL0 Copyright (c) Steve Scherf et al.
# Submitted via: ExactAudioCopyFreeDBPlugin 1.0
#
DISCID=9307a40c
DTITLE=Union Citygrass - Lepší nápad mám
DYEAR=2001
DGENRE=Bluegrass
TTITLE0=Správne slová
TTITLE1=Tak málo viem
TTITLE2=Sú také dni
TTITLE3=Múr čo delí nás
TTITLE4=Mám ťa stále rád
TTITLE5=Nemám sil
TTITLE6=Stále niečo skúša
TTITLE7=Už ti neverím
TTITLE8=Pár krátkych dní
TTITLE9=Už sme dospelí
TTITLE10=Lepší nápad mám
TTITLE11=Daybreak in Dixie
EXTD=
EXTT0=
EXTT1=
EXTT2=
EXTT3=
EXTT4=
EXTT5=
EXTT6=
EXTT7=
EXTT8=
EXTT9=
EXTT10=
EXTT11=
PLAYORDER=
